<?xml version="1.0" encoding="UTF-8"?>
<svg id="Capa_1" data-name="Capa 1" xmlns="http://www.w3.org/2000/svg" viewBox="0 0 800 768">
  <defs>
    <style>
      .cls-1 {
        fill: #193971;
        stroke: #1d3a6e;
        stroke-miterlimit: 10;
      }
    </style>
  </defs>
  <path class="cls-1" d="M16.08,492.27c5,12.71,57.08,134.36,278.04,164.91,173.46,23.99,349-22.26,435.69-90.34,82.74-64.99,84.74-150.01,17.2-205.07-41.31-33.68-110.18-57.39-235.04-100.38-45.34-15.61-97.61-31.74-160.52-63.1-31.48-15.69-58.94-29.55-85.99-51.63-23.11-18.86-39.61-41.51-71.66-86.04-13.95-19.39-36.61-51.74-37.26-51.63-.89.15,72.14,55.47,57.33,121.89-8.45,37.89-40.11,55.23-17.2,80.31,15.53,17,45.21,25.62,91.72,38.72,81.62,22.99,104.91,15.81,163.38,31.55,93.57,25.19,137.07,71.36,157.65,93.21,13.71,14.55,58.75,60.56,63.64,97.26,2.35,17.59-18.82,29.73-46.89,65.46-9.19,11.69-18.49,20.19-22.48,23.71-17.69,15.61-77.17,79.69-150.22,83.97-53.29,3.12-137.75-23.86-212.57-63.86-86.96-46.49-102.14-90.06-81.5-124.8,16.08-27.08,76.84-44.89,128.99-48.76,16.73-1.24,70.24-3.83,149.05,22.94,140.71,47.8,196.99,133.13,257.98,229.45,32.35,51.09,52.66,81.26,57.33,86.04,42.25,43.34-18.77-32.75-29.47-77.43-20.3-84.75-12.54-187.8-125.32-258.14-49.31-30.75-136.4-85.07-278.04-90.34-97.05-3.61-225.19,15.59-283.77,67.4-45.42,40.17-28.92,82.17-20.06,104.69Z"/>
</svg>